<svg width="20" height="28" viewBox="0 0 20 28" fill="none" xmlns="http://www.w3.org/2000/svg">
<path d="M4.41214 15.4098C6.24125 16.0257 7.6052 17.5613 8.00729 19.4523L9.78121 27.8253C9.83246 28.0582 10.1636 28.0582 10.2109 27.8253L11.9848 19.4523C12.3869 17.5613 13.7509 16.0257 15.58 15.4098L19.8492 13.9729C20.0503 13.9058 20.0503 13.6215 19.8492 13.5544L15.5524 12.1056C13.739 11.4937 12.379 9.98174 11.9691 8.11053L10.2148 0.171725C10.1636 -0.0572415 9.83641 -0.0572415 9.78516 0.171725L8.03094 8.11053C7.61703 9.97779 6.25702 11.4937 4.44762 12.1056L0.150783 13.5544C-0.0502612 13.6215 -0.0502612 13.9058 0.150783 13.9729L4.42003 15.4098H4.41214Z" fill="#BCFFF8"/>
</svg>
