<svg width="48" height="52" viewBox="0 0 48 52" fill="none" xmlns="http://www.w3.org/2000/svg">
<path d="M40.9215 6.24696C41.6415 6.49661 42.1784 7.11915 42.3366 7.88571L43.0349 11.2801C43.0551 11.3745 43.1854 11.3745 43.204 11.2801L43.9023 7.88571C44.0605 7.11915 44.5974 6.49661 45.3174 6.24696L46.9978 5.66443C47.077 5.63723 47.077 5.522 46.9978 5.49479L45.3065 4.90747C44.5928 4.65941 44.0574 4.04648 43.8961 3.28791L43.2056 0.0696151C43.1854 -0.023205 43.0566 -0.023205 43.0364 0.0696151L42.3459 3.28791C42.183 4.04488 41.6477 4.65941 40.9355 4.90747L39.2442 5.49479C39.165 5.522 39.165 5.63723 39.2442 5.66443L40.9246 6.24696H40.9215Z" fill="#061725"/>
<path d="M7.58644 42.1558C3.40399 36.925 1.93127 29.7225 3.70409 23.278C6.05034 14.5475 13.6744 8.20165 22.6771 7.23257C25.2353 6.95062 27.8302 7.09258 30.3487 7.64958C31.043 7.80239 31.7343 7.98477 32.4127 8.20165C32.6415 8.26967 32.8663 8.34953 33.0941 8.42248C29.7406 6.57699 25.7929 5.70058 21.8581 5.87409C19.1503 5.98155 16.4208 6.61642 13.92 7.69099C9.28992 9.67548 5.38182 13.2334 2.93356 17.6154C2.58395 18.2582 2.20958 18.9808 1.92137 19.6502C1.82827 19.8868 1.58166 20.4724 1.49352 20.704C1.4133 20.9288 1.20036 21.5469 1.11816 21.7776C1.04883 22.0191 0.860655 22.6333 0.795289 22.8689C0.727942 23.1174 0.588296 23.7177 0.525901 23.975C0.320889 24.9628 0.162425 25.9694 0.0881453 26.9759C0.0257503 27.5586 0.0198079 28.2812 0 28.8687C0.00792318 29.1172 0.0138656 29.7471 0.0257503 30.0054C0.0376351 30.3731 0.0911165 30.7694 0.109934 31.1401C0.195108 32.0204 0.335745 32.8969 0.512035 33.7644C0.565517 34.0109 0.721999 34.6398 0.77449 34.8725C0.841837 35.1179 1.02011 35.7094 1.09241 35.9658C1.17263 36.1905 1.39052 36.8284 1.46777 37.0403C2.13926 38.806 3.01873 40.5124 4.09727 42.0661C6.2395 45.1685 9.15127 47.7416 12.5097 49.4757C19.4484 53.1489 28.5353 52.8344 34.9878 48.3962C25.4869 52.7792 14.0963 50.4191 7.58743 42.1558H7.58644Z" fill="#061725"/>
<path d="M40.0378 13.2305C28.8057 14.0211 19.1453 17.6529 10.6428 23.3787C10.5002 22.8739 10.2892 22.3869 10.006 21.9433C9.2384 20.6903 7.67061 19.6818 6.19789 20.0495C7.91523 21.41 8.28267 23.7622 7.81421 25.7644C7.36358 27.7706 6.01862 29.7314 3.88135 30.2283C4.15074 30.458 4.47856 30.6216 4.83213 30.7261C6.18996 31.1185 7.61217 30.6384 8.6927 29.758C18.3124 40.9897 28.982 45.9583 40.8707 43.6406C44.345 39.7012 46.4506 34.5364 46.4506 28.8826C46.4506 22.7901 44.0053 17.2655 40.0378 13.2305ZM32.9653 37.3381L33.1803 43.2768C27.3666 42.4043 22.0403 40.341 17.1022 36.4193L18.6818 36.2803C21.0132 36.0753 22.687 33.9537 22.3334 31.6498L20.4111 19.2007C24.0161 17.441 27.64 16.2521 31.2648 15.7463L34.8689 23.4999L43.8102 26.486C44.1568 33.1247 40.8479 36.9753 32.9653 37.3381Z" fill="#061725"/>
<path d="M27.2248 24.3794C27.832 24.3794 28.3242 23.5779 28.3242 22.5891C28.3242 21.6004 27.832 20.7988 27.2248 20.7988C26.6177 20.7988 26.1255 21.6004 26.1255 22.5891C26.1255 23.5779 26.6177 24.3794 27.2248 24.3794Z" fill="#061725"/>
<path d="M32.2483 23.7878C32.8554 23.7878 33.3476 22.9863 33.3476 21.9976C33.3476 21.0088 32.8554 20.2073 32.2483 20.2073C31.6411 20.2073 31.1489 21.0088 31.1489 21.9976C31.1489 22.9863 31.6411 23.7878 32.2483 23.7878Z" fill="#061725"/>
<path d="M44.969 26.2722L39.0424 27.3813C37.948 27.5863 37.8371 29.1026 38.8899 29.4634L41.6125 30.395C42.1721 30.5862 42.7921 30.4324 43.1952 30.0016L45.4147 27.6327L44.969 26.2722Z" fill="#061725"/>
</svg>
