<svg width="197" height="21" viewBox="0 0 197 21" fill="none" xmlns="http://www.w3.org/2000/svg">
<path fill-rule="evenodd" clip-rule="evenodd" d="M99.8199 18.5657C102.145 17.4602 106.066 15.1013 108.358 11.9673C110.983 8.37805 111.526 5.58045 111.47 4.63031C112.984 7.62244 114.423 14.6252 109.192 20.2844C112.175 20.0704 114.511 19.261 116.2 17.8561C118.202 16.1987 119.203 13.7366 119.203 10.4698C119.203 7.21253 118.202 4.75521 116.2 3.09784C114.207 1.43089 111.314 0.597412 107.52 0.597412C103.727 0.597412 100.829 1.43089 98.8264 3.09784C96.8338 4.75521 95.8374 7.21253 95.8374 10.4698C95.8374 13.7366 96.8338 16.1987 98.8264 17.8561C99.1362 18.1125 99.4673 18.349 99.8199 18.5657ZM19.5529 20.1697H25.186L27.0541 15.5712H36.4667L38.3204 20.1697H43.9536L35.4464 0.755486H28.0744L19.5529 20.1697ZM28.2181 12.1367L31.7532 3.65828H31.7963L35.3027 12.1367H28.2181ZM7.83908 20.1697H13.2567V4.34805H20.9879V0.769857H0.0935059V4.34805H7.83908V20.1697ZM51.7216 20.1697H45.3125L53.4317 10.5704L45.5424 0.769857H51.9515L57.2829 8.29988L62.6286 0.769857H69.0234L61.1054 10.5704L69.2533 20.1697H62.8586L57.2829 12.8409L51.7216 20.1697ZM71.3745 20.1697H76.7921V12.3523H87.0094V20.1697H92.4269V0.769857H87.0094V8.77409H76.7921V0.769857H71.3745V20.1697ZM133.043 20.2847C136.645 20.2847 139.366 19.6715 141.205 18.4453C143.045 17.219 143.964 15.1689 143.964 12.2948V0.769857H138.547V11.7775C138.547 13.5307 138.106 14.7904 137.225 15.5569C136.343 16.3233 134.949 16.7065 133.043 16.7065C131.127 16.7065 129.728 16.3233 128.847 15.5569C127.965 14.7809 127.525 13.5211 127.525 11.7775V0.769857H122.107V12.2948C122.107 15.1689 123.027 17.219 124.866 18.4453C126.706 19.6715 129.431 20.2847 133.043 20.2847ZM152.993 20.1697H147.604V0.769857H156.442L166.202 16.4147L166.228 0.769857H171.631V20.1697H162.937L152.993 4.20347V20.1697ZM175.531 20.1697H187.702C190.778 20.1697 193.096 19.4273 194.658 17.9423C196.219 16.4574 197 13.9618 197 10.4554C197 6.95865 196.219 4.4726 194.658 2.99725C193.096 1.51232 190.778 0.769857 187.702 0.769857H175.531V20.1697ZM180.934 16.5915V4.34805H186.337C188.081 4.34805 189.389 4.74084 190.26 5.52641C191.142 6.30241 191.582 7.94541 191.582 10.4554C191.582 12.9846 191.142 14.642 190.26 15.4275C189.389 16.2035 188.081 16.5915 186.337 16.5915H180.934Z" fill="#061725"/>
</svg>
